<svg class="SocialItem__icon SocialItem__icon_theme_white" width="40" height="37" viewBox="0 0 41 38" xmlns="http://www.w3.org/2000/svg"><path d="M28.958 15.328c-.039-.9-.18-1.52-.384-2.055a4.144 4.144 0 00-.955-1.503 4.057 4.057 0 00-1.462-.976c-.526-.209-1.126-.354-2.004-.394-.884-.043-1.165-.053-3.407-.053-2.243 0-2.524.01-3.405.05-.877.04-1.48.185-2.004.393a4.021 4.021 0 00-1.465.98c-.42.424-.745.937-.951 1.5-.204.539-.346 1.154-.384 2.055-.042.906-.052 1.194-.052 3.495 0 2.3.01 2.588.048 3.491.039.9.181 1.52.384 2.055.21.57.536 1.08.955 1.503.414.43.914.765 1.462.976.526.209 1.126.355 2.004.394.881.04 1.162.05 3.404.05 2.243 0 2.524-.01 3.405-.05.878-.04 1.48-.185 2.004-.394a4.281 4.281 0 002.417-2.479c.203-.539.345-1.155.384-2.055.038-.903.048-1.191.048-3.491s-.003-2.589-.042-3.492zm-1.487 6.917c-.036.827-.172 1.274-.284 1.572a2.776 2.776 0 01-1.569 1.609c-.29.115-.729.254-1.532.29-.872.04-1.133.05-3.337.05s-2.469-.01-3.337-.05c-.806-.036-1.242-.175-1.532-.29a2.537 2.537 0 01-.95-.633 2.64 2.64 0 01-.615-.973c-.114-.297-.249-.748-.284-1.572-.04-.893-.049-1.161-.049-3.422 0-2.26.01-2.532.049-3.422.035-.827.17-1.274.284-1.572.132-.367.342-.702.62-.973a2.56 2.56 0 01.948-.632c.29-.116.73-.255 1.533-.292.87-.04 1.132-.05 3.336-.05 2.207 0 2.469.01 3.337.05.806.037 1.242.176 1.533.292.358.135.684.35.948.632.274.275.484.606.617.973.112.298.248.748.284 1.572.038.894.048 1.162.048 3.422 0 2.26-.01 2.525-.048 3.419z"></path><path d="M20.746 14.467c-2.343 0-4.244 1.95-4.244 4.352 0 2.403 1.901 4.353 4.244 4.353s4.243-1.95 4.243-4.353c0-2.402-1.9-4.352-4.243-4.352zm0 7.176c-1.52 0-2.753-1.265-2.753-2.824 0-1.558 1.233-2.823 2.753-2.823s2.752 1.264 2.752 2.823c0 1.56-1.232 2.824-2.752 2.824zM26.148 14.295c0 .561-.444 1.016-.991 1.016-.547 0-.99-.455-.99-1.016 0-.56.443-1.016.99-1.016.547 0 .99.455.99 1.016z"></path></svg>