<svg class="SocialItem__icon SocialItem__icon_theme_white" width="40" height="40" viewBox="0 0 40 40" xmlns="http://www.w3.org/2000/svg"><path d="M29.53 24.47c-.055-.094-.401-.847-2.065-2.394-1.743-1.62-1.509-1.357.59-4.158 1.278-1.705 1.789-2.747 1.629-3.192-.152-.425-1.092-.313-1.092-.313l-3.126.018s-.231-.03-.404.072c-.168.101-.276.336-.276.336s-.495 1.32-1.156 2.443c-1.392 2.368-1.95 2.493-2.177 2.346-.53-.342-.397-1.378-.397-2.112 0-2.296.347-3.253-.677-3.5-.341-.082-.59-.137-1.46-.146-1.116-.012-2.061.004-2.596.266-.356.174-.63.564-.462.586.206.027.674.126.923.465.32.436.31 1.418.31 1.418s.184 2.701-.431 3.037c-.423.23-1.001-.24-2.243-2.389a20.048 20.048 0 01-1.117-2.318s-.092-.226-.257-.347c-.2-.147-.481-.194-.481-.194l-2.973.018s-.445.013-.61.207c-.145.173-.011.53-.011.53s2.327 5.452 4.961 8.2c2.417 2.52 5.16 2.355 5.16 2.355h1.244s.376-.042.567-.249c.177-.19.17-.547.17-.547s-.025-1.67.75-1.917c.763-.242 1.744 1.615 2.782 2.33.786.54 1.383.422 1.383.422l2.778-.04s1.454-.09.765-1.234z"></path></svg>